<svg width="135" height="34" viewBox="0 0 135 34" fill="none" xmlns="http://www.w3.org/2000/svg">
<path d="M13.0859 18.8633C11.3633 17.9609 9.72266 17.5098 8.16406 17.5098C6.60547 17.5098 5.33984 17.9141 4.36719 18.7227C3.39453 19.5195 2.9082 20.457 2.9082 21.5352C2.9082 22.6133 3.38281 23.5391 4.33203 24.3125C5.29297 25.0742 6.54688 25.4551 8.09375 25.4551C9.65234 25.4551 10.9648 25.2734 12.0312 24.9102C13.1094 24.5469 14 24.043 14.7031 23.3984C15.418 22.7422 16.0332 21.9863 16.5488 21.1309C17.0762 20.2754 17.5098 19.3379 17.8496 18.3184C18.2012 17.2988 18.5176 16.2617 18.7988 15.207C19.0801 14.1406 19.3672 13.0566 19.6602 11.9551C19.9648 10.8418 20.2871 9.79297 20.627 8.80859C21.3887 6.59375 22.4785 4.87109 23.8965 3.64062C21.6465 3.06641 19.2793 2.7793 16.7949 2.7793C15.3887 2.7793 14.0645 3.16602 12.8223 3.93945C11.5801 4.70117 10.584 5.73242 9.83398 7.0332C9.0957 8.33398 8.72656 9.76953 8.72656 11.3398C8.72656 12.9102 9.16602 14.2344 10.0449 15.3125C10.9355 16.3906 12.2012 17.3398 13.8418 18.1602L13.5957 19.0566L13.0859 18.8633ZM3.03125 25.4023C2.19922 25.0391 1.51953 24.5234 0.992188 23.8555C0.464844 23.1758 0.201172 22.4023 0.201172 21.5352C0.201172 20.6562 0.417969 19.8711 0.851562 19.1797C1.28516 18.4883 1.84766 17.9434 2.53906 17.5449C3.98047 16.7246 5.55078 16.3145 7.25 16.3145C8.12891 16.3145 8.9375 16.4375 9.67578 16.6836C8.08203 14.6797 7.28516 12.8398 7.28516 11.1641C7.28516 8.73828 8.13477 6.61133 9.83398 4.7832C11.4863 3.01367 13.4375 1.80078 15.6875 1.14453C16.8242 0.816406 17.9375 0.652344 19.0273 0.652344C20.1172 0.652344 21.6934 0.886719 23.7559 1.35547C25.8184 1.82422 27.1836 2.05859 27.8516 2.05859C28.5195 2.05859 28.9883 1.98242 29.2578 1.83008C29.6211 1.63086 30.0488 1.25 30.541 0.6875H31.877C31.7246 1.32031 31.4141 1.86523 30.9453 2.32227C30.4766 2.7793 29.9375 3.11328 29.3281 3.32422C28.1914 3.71094 27.1133 3.9043 26.0938 3.9043C24.6289 3.9043 23.6445 5.66211 23.1406 9.17773C23.0117 10.1035 22.8828 11.4219 22.7539 13.1328C22.625 14.8438 22.3262 16.3613 21.8574 17.6855C21.4004 19.0098 20.8086 20.1406 20.082 21.0781C19.3672 22.0156 18.5527 22.8418 17.6387 23.5566C16.7363 24.2598 15.752 24.8223 14.6855 25.2441C12.6113 26.0645 10.4141 26.4746 8.09375 26.4746C6.33594 26.4746 4.64844 26.1172 3.03125 25.4023ZM32.7207 24.3828C32.7207 23.7734 32.9668 22.7949 33.459 21.4473C33.9512 20.0996 34.1973 19.1387 34.1973 18.5645C34.1973 17.9785 33.9922 17.6855 33.582 17.6855C33.1836 17.6855 32.6973 17.9727 32.123 18.5469C31.5488 19.1094 30.998 19.8008 30.4707 20.6211C29.6035 21.9453 28.7305 23.457 27.8516 25.1562L27.3945 26H24.8633C25.4375 21.7578 25.9883 18.6172 26.5156 16.5781C27.043 14.5391 27.5469 12.7988 28.0273 11.3574C28.5078 9.91602 29.0234 8.63867 29.5742 7.52539C30.8164 4.9707 32.2461 3.07812 33.8633 1.84766L35.1992 2.46289C33.9453 3.7168 32.791 5.92578 31.7363 9.08984C30.6934 12.2422 29.5332 16.5957 28.2559 22.1504C28.3262 22.0332 28.4668 21.7871 28.6777 21.4121C28.9004 21.0254 29.0703 20.7383 29.1875 20.5508C29.3047 20.3516 29.4805 20.0586 29.7148 19.6719C29.9609 19.2852 30.166 18.9805 30.3301 18.7578C30.4941 18.5234 30.7051 18.2363 30.9629 17.8965C31.2324 17.5566 31.4668 17.2871 31.666 17.0879C31.877 16.877 32.123 16.6543 32.4043 16.4199C32.6855 16.1738 32.9551 15.9805 33.2129 15.8398C33.8105 15.5352 34.4492 15.3828 35.1289 15.3828C35.8086 15.3828 36.3184 15.5703 36.6582 15.9453C37.0098 16.3203 37.1855 16.8242 37.1855 17.457C37.1855 18.0898 36.8926 19.1562 36.3066 20.6562C35.7207 22.1445 35.4277 23.0645 35.4277 23.416C35.4277 23.7676 35.5215 23.9434 35.709 23.9434C36.2012 23.9434 36.9453 23.1992 37.9414 21.7109L38.6973 22.4141C37.9473 23.7031 37.1621 24.6699 36.3418 25.3145C35.5332 25.959 34.8652 26.2812 34.3379 26.2812C33.8223 26.2812 33.4238 26.1172 33.1426 25.7891C32.8613 25.4609 32.7207 24.9922 32.7207 24.3828ZM49.3496 15.7695H52.0918L50.7031 21.0254C50.4805 21.7637 50.3691 22.4375 50.3691 23.0469C50.3691 23.6445 50.4746 23.9434 50.6855 23.9434C50.8965 23.9434 51.1836 23.7617 51.5469 23.3984C51.9219 23.0234 52.2383 22.6484 52.4961 22.2734L52.9004 21.7109L53.6562 22.4141C53.2695 23.1641 52.7773 23.8496 52.1797 24.4707C51.0195 25.6777 50.0117 26.2812 49.1562 26.2812C48.1484 26.2812 47.6445 25.502 47.6445 23.9434C47.6445 23.6855 47.6562 23.4922 47.6797 23.3633C47.5039 23.9609 47.1699 24.4883 46.6777 24.9453C45.7402 25.8359 44.6797 26.2812 43.4961 26.2812C42.3242 26.2812 41.3809 25.8828 40.666 25.0859C39.9629 24.2773 39.6113 23.2695 39.6113 22.0625C39.6113 20.1875 40.2207 18.6055 41.4395 17.3164C42.6582 16.0273 44.0879 15.3828 45.7285 15.3828C46.5488 15.3828 47.2285 15.6113 47.7676 16.0684C48.3066 16.5137 48.6582 17.0996 48.8223 17.8262L49.3496 15.7695ZM46.4141 16.8945C45.7344 16.8945 45.0957 17.1816 44.498 17.7559C43.9121 18.3184 43.4609 19.0039 43.1445 19.8125C42.8281 20.6094 42.6699 21.3887 42.6699 22.1504C42.6699 22.9121 42.834 23.5273 43.1621 23.9961C43.502 24.4648 44.0176 24.6992 44.709 24.6992C45.4121 24.6992 46.0449 24.3828 46.6074 23.75C47.6738 22.5312 48.207 21.084 48.207 19.4082C48.207 17.7324 47.6094 16.8945 46.4141 16.8945ZM59.3867 21.0605C61.8359 17.2754 64.0332 15.3828 65.9785 15.3828C66.6348 15.3828 67.127 15.582 67.4551 15.9805C67.7832 16.3789 67.9473 16.8828 67.9473 17.4922C67.9473 18.1016 67.6719 19.1562 67.1211 20.6562C66.582 22.1562 66.3125 23.0879 66.3125 23.4512C66.3125 23.8027 66.4004 23.9785 66.5762 23.9785C66.8105 23.9785 67.1562 23.7383 67.6133 23.2578C68.0703 22.7656 68.4746 22.25 68.8262 21.7109L69.5645 22.4141C68.8613 23.6914 68.0879 24.6582 67.2441 25.3145C66.4121 25.959 65.7324 26.2812 65.2051 26.2812C64.6895 26.2812 64.2852 26.1113 63.9922 25.7715C63.6992 25.4199 63.5527 24.9453 63.5527 24.3477C63.5527 23.75 63.7871 22.7773 64.2559 21.4297C64.7363 20.0703 64.9766 19.1094 64.9766 18.5469C64.9766 17.9727 64.7832 17.6855 64.3965 17.6855C63.9512 17.6855 63.4238 17.9727 62.8145 18.5469C62.2051 19.1094 61.6133 19.8008 61.0391 20.6211C60.125 21.9336 59.1934 23.4453 58.2441 25.1562L57.7695 26H55.291L55.8359 24.3477C56.8555 21.3008 57.3652 19.4961 57.3652 18.9336C57.3652 18.3594 57.2715 18.0723 57.084 18.0723C56.7441 18.0723 56.3398 18.4766 55.8711 19.2852C55.7656 19.4727 55.6777 19.625 55.6074 19.7422C55.5371 19.8477 55.4551 19.9824 55.3613 20.1465C55.2793 20.2988 55.2266 20.3926 55.2031 20.4277L54.0254 19.7422C54.9395 18.2539 55.7773 17.1582 56.5391 16.4551C57.3008 15.7402 58.0801 15.3828 58.877 15.3828C59.2402 15.3828 59.5508 15.5352 59.8086 15.8398C60.0781 16.1445 60.2129 16.5137 60.2129 16.9473C60.2129 17.3809 60.1777 17.8086 60.1074 18.2305C60.0371 18.6406 59.9609 18.9863 59.8789 19.2676C59.8086 19.5371 59.709 19.8887 59.5801 20.3223C59.4629 20.7559 59.3984 21.002 59.3867 21.0605ZM75.3652 6.99805C76.1973 5.20508 77.3105 3.76367 78.7051 2.67383C80.0996 1.57227 81.582 1.02148 83.1523 1.02148C84.0781 1.02148 84.875 1.25586 85.543 1.72461C86.2227 2.19336 86.5625 2.90234 86.5625 3.85156C86.5625 4.40234 86.375 4.83008 86 5.13477C85.6367 5.43945 85.2031 5.5918 84.6992 5.5918C84.207 5.5918 83.7852 5.45117 83.4336 5.16992C83.0938 4.87695 82.9238 4.51367 82.9238 4.08008C82.9238 3.64648 83.082 3.18945 83.3984 2.70898C83 2.52148 82.6074 2.42773 82.2207 2.42773C81.8457 2.42773 81.418 2.58008 80.9375 2.88477C80.4688 3.18945 80.0352 3.59375 79.6367 4.09766C78.9336 4.98828 78.2832 6.07813 77.6855 7.36719C77.0996 8.65625 76.168 11.7676 74.8906 16.7012C73.625 21.6348 72.9922 24.7344 72.9922 26H70.2148C70.2148 23.9961 70.7773 20.9668 71.9023 16.9121C73.0391 12.8574 74.1934 9.55273 75.3652 6.99805ZM84.1895 22.9062C83.6738 23.7969 83.0176 24.582 82.2207 25.2617C81.4355 25.9414 80.6504 26.2812 79.8652 26.2812C79.0918 26.2812 78.5059 25.9473 78.1074 25.2793C77.709 24.6113 77.3457 24.0078 77.0176 23.4688C76.7012 22.918 76.4434 22.4844 76.2441 22.168C76.0566 21.8398 75.8809 21.541 75.7168 21.2715C75.5527 21.002 75.4297 20.8027 75.3477 20.6738C75.2773 20.5332 75.207 20.4102 75.1367 20.3047C75.0664 20.1758 75.0137 20.0469 74.9785 19.918L75.4883 19.3555C78.8164 15.8164 81.4297 14.0469 83.3281 14.0469C84.0547 14.0469 84.6113 14.2227 84.998 14.5742C85.3965 14.9258 85.5957 15.3184 85.5957 15.752C85.5957 16.1855 85.4551 16.5723 85.1738 16.9121C84.9043 17.2402 84.5234 17.4043 84.0312 17.4043C83.5391 17.4043 83.1582 17.2871 82.8887 17.0527C82.6309 16.8184 82.4785 16.584 82.4316 16.3496L82.3613 15.998C80.5684 16.9707 78.9805 18.0488 77.5977 19.2324C77.3047 19.4902 77.1289 19.6484 77.0703 19.707C77.3984 19.9414 78.5703 21.3301 80.5859 23.873C80.7852 24.1426 80.9961 24.2773 81.2188 24.2773C81.4531 24.2773 81.7285 24.1309 82.0449 23.8379C82.3613 23.5449 82.8359 23.0293 83.4688 22.291L84.1895 22.9062ZM92.5918 19.918L91.4492 19.2324C92.0352 18.2129 92.7617 17.3164 93.6289 16.543C94.5078 15.7695 95.293 15.3828 95.9844 15.3828C97.1094 15.3828 97.6719 15.8867 97.6719 16.8945C97.6719 17.3164 97.3789 18.3418 96.793 19.9707C96.2188 21.5996 95.9316 22.6309 95.9316 23.0645C95.9316 23.498 95.9609 23.7793 96.0195 23.9082C96.0781 24.0254 96.207 24.084 96.4062 24.084C97.4727 24.084 98.5684 23.6855 99.6934 22.8887C100.83 22.0801 101.568 21.1895 101.908 20.2168L103.139 16.6309C103.268 16.2676 103.467 15.9805 103.736 15.7695C104.006 15.5586 104.264 15.4531 104.51 15.4531C104.768 15.4531 104.973 15.5352 105.125 15.6992C105.289 15.8633 105.371 16.0801 105.371 16.3496C105.371 16.6191 105.318 16.9004 105.213 17.1934L103.877 21.0957C103.139 23.3926 101.996 25.6543 100.449 27.8809C101.797 28.0215 102.998 28.2617 104.053 28.6016L103.912 29.5859C102.295 29.2578 100.865 29.0645 99.623 29.0059C98.4863 30.4707 97.3203 31.6367 96.125 32.5039C94.9414 33.3828 93.9043 33.8223 93.0137 33.8223C92.1348 33.8223 91.4785 33.6406 91.0449 33.2773C90.5996 32.9258 90.377 32.4395 90.377 31.8184C90.377 31.1973 90.6113 30.6289 91.0801 30.1133C91.5488 29.6094 92.1758 29.1992 92.9609 28.8828C94.5547 28.2266 96.3828 27.8516 98.4453 27.7578C98.6094 27.5703 99.002 26.9141 99.623 25.7891C100.244 24.6523 100.578 23.9375 100.625 23.6445C98.5508 25.4023 96.7227 26.2812 95.1406 26.2812C94.4961 26.2812 94.0273 26.0645 93.7344 25.6309C93.4414 25.1855 93.2949 24.6406 93.2949 23.9961C93.2949 23.3516 93.5352 22.25 94.0156 20.6914C94.5078 19.1211 94.7539 18.2305 94.7539 18.0195C94.7539 17.7969 94.7012 17.6855 94.5957 17.6855C94.502 17.6855 94.3965 17.7148 94.2793 17.7734C94.1621 17.8203 94.0449 17.9023 93.9277 18.0195C93.8223 18.125 93.7227 18.2305 93.6289 18.3359C93.5352 18.4297 93.4297 18.5645 93.3125 18.7402C93.207 18.916 93.125 19.0508 93.0664 19.1445C92.8203 19.5312 92.6621 19.7891 92.5918 19.918ZM97.6719 29.0059C96.7227 29.0645 95.7559 29.2344 94.7715 29.5156C92.873 30.0547 91.9238 30.6875 91.9238 31.4141C91.9238 31.8477 92.1934 32.0645 92.7324 32.0645C93.2715 32.0645 94.1504 31.6719 95.3691 30.8867C96.5879 30.1133 97.3555 29.4863 97.6719 29.0059ZM105.811 21.8164C105.811 20.9375 106.021 20.0938 106.443 19.2852C106.877 18.4648 107.434 17.7734 108.113 17.2109C109.613 15.9922 111.143 15.3828 112.701 15.3828C114.26 15.3828 115.537 15.7988 116.533 16.6309C117.529 17.4629 118.027 18.5059 118.027 19.7598C118.027 21.002 117.682 22.1211 116.99 23.1172C116.311 24.1133 115.408 24.8926 114.283 25.4551C113.158 26.0059 111.928 26.2812 110.592 26.2812C109.268 26.2812 108.137 25.8652 107.199 25.0332C106.273 24.1895 105.811 23.1172 105.811 21.8164ZM111.559 25.1914C112.098 25.1914 112.602 25.0156 113.07 24.6641C113.551 24.3125 113.914 23.8555 114.16 23.293C114.641 22.2148 114.881 21.1016 114.881 19.9531C114.881 18.8047 114.67 17.9375 114.248 17.3516C113.826 16.7539 113.229 16.4551 112.455 16.4551C111.682 16.4551 110.914 16.959 110.152 17.9668C109.402 18.9746 109.027 20.2578 109.027 21.8164C109.027 24.0664 109.871 25.1914 111.559 25.1914ZM133.355 15.7695C131.785 19.9531 131 22.4902 131 23.3809C131 23.7559 131.094 23.9434 131.281 23.9434C131.797 23.9434 132.547 23.1934 133.531 21.6934L134.287 22.4141C133.666 23.5273 132.928 24.4531 132.072 25.1914C131.229 25.918 130.543 26.2812 130.016 26.2812C128.926 26.2812 128.381 25.7305 128.381 24.6289C128.381 23.7734 128.58 22.7305 128.979 21.5C129.377 20.2695 129.576 19.6484 129.576 19.6367C129.518 19.7422 129.377 19.9883 129.154 20.375C128.932 20.75 128.768 21.0312 128.662 21.2188C128.557 21.4062 128.381 21.6934 128.135 22.0801C127.9 22.4551 127.701 22.7539 127.537 22.9766C127.385 23.1875 127.174 23.4629 126.904 23.8027C126.646 24.1426 126.412 24.4121 126.201 24.6113C126.002 24.8105 125.762 25.0332 125.48 25.2793C125.199 25.5137 124.93 25.6953 124.672 25.8242C124.086 26.1289 123.512 26.2812 122.949 26.2812C121.555 26.2812 120.857 25.5137 120.857 23.9785C120.857 23.2754 121.109 22.1855 121.613 20.709C122.117 19.2207 122.369 18.3477 122.369 18.0898C122.369 17.8203 122.287 17.6855 122.123 17.6855C121.654 17.6855 121.004 18.4297 120.172 19.918L119.029 19.2324C120.635 16.666 122.182 15.3828 123.67 15.3828C124.162 15.3828 124.555 15.5234 124.848 15.8047C125.141 16.0742 125.275 16.4961 125.252 17.0703C125.24 17.6328 124.953 18.6465 124.391 20.1113C123.84 21.5645 123.564 22.6777 123.564 23.4512C123.564 23.873 123.758 24.084 124.145 24.084C124.59 24.084 125.117 23.8027 125.727 23.2402C126.348 22.666 126.945 21.9688 127.52 21.1484C128.434 19.8594 129.383 18.3477 130.367 16.6133L130.842 15.7695H133.355Z" fill="#ECECFB"/>
</svg>
